<svg xmlns="http://www.w3.org/2000/svg" viewBox="0 0 400 400" xmlns:xlink="http://www.w3.org/1999/xlink"><defs><linearGradient id="d"><stop offset="0" stop-color="#f4f582"/><stop offset="1" stop-color="#d7d406" stop-opacity=".988"/></linearGradient><linearGradient id="c"><stop offset="0" stop-color="#e7e912"/><stop offset="1" stop-color="#e7e912" stop-opacity="0"/></linearGradient><linearGradient id="b"><stop offset="0" stop-color="#eaec13"/><stop offset="1" stop-color="#ffff14"/></linearGradient><linearGradient id="a"><stop offset="0" stop-color="#eaec13"/><stop offset="1" stop-color="#ffff7b"/></linearGradient><radialGradient id="f" cx="369.181" cy="199.822" r="170" xlink:href="#a" fx="369.181" fy="199.822" gradientUnits="userSpaceOnUse" gradientTransform="matrix(0.49453109,-0.92585889,0.72376858,0.38658925,41.984183,464.38259)" spreadMethod="reflect"/><radialGradient id="i" cx="35.371" cy="49.512" r="21.678" xlink:href="#d" fx="35.371" fy="49.512" gradientTransform="matrix(-0.99980954,-0.0195162,0.02421871,-1.2407175,102.02487,88.245131)" gradientUnits="userSpaceOnUse"/><radialGradient id="k" cx="35.371" cy="49.512" r="21.678" xlink:href="#d" fx="35.371" fy="49.512" gradientTransform="matrix(1,0,0,1.2409539,-17.883154,-67.256034)" gradientUnits="userSpaceOnUse"/><radialGradient id="m" cx="35.371" cy="49.512" r="21.678" xlink:href="#d" fx="35.371" fy="49.512" gradientTransform="matrix(-0.99998361,0.00572512,-0.00710461,-1.2409336,64.204343,39.271703)" gradientUnits="userSpaceOnUse"/><radialGradient id="g" cx="85.829" cy="54.435" r="21.678" xlink:href="#d" gradientUnits="userSpaceOnUse" gradientTransform="matrix(0.87717975,-0.00498465,0.00815942,1.4378728,-21.831798,-32.649823)" fx="85.829" fy="54.435"/><radialGradient id="o" cx="85.829" cy="54.435" r="21.678" xlink:href="#d" gradientUnits="userSpaceOnUse" gradientTransform="matrix(-0.87717975,-0.00498465,-0.00815942,1.4378728,423.34897,-32.404794)" fx="85.829" fy="54.435"/><radialGradient id="q" cx="35.371" cy="49.512" r="21.678" xlink:href="#d" fx="35.371" fy="49.512" gradientTransform="matrix(0.99980954,-0.0195162,-0.02421871,-1.2407175,299.49231,88.49016)" gradientUnits="userSpaceOnUse"/><radialGradient id="s" cx="35.371" cy="49.512" r="21.678" xlink:href="#d" fx="35.371" fy="49.512" gradientTransform="matrix(-1,0,0,1.2409539,419.40033,-67.011005)" gradientUnits="userSpaceOnUse"/><radialGradient id="u" cx="35.371" cy="49.512" r="21.678" xlink:href="#d" fx="35.371" fy="49.512" gradientTransform="matrix(0.99998361,0.00572512,0.00710461,-1.2409336,337.31283,39.516732)" gradientUnits="userSpaceOnUse"/><filter id="e" width="1.148" height="1.148" x="-.074" y="-.074" color-interpolation-filters="sRGB"><feFlood flood-opacity=".4" flood-color="rgb(94,94,0)" result="flood"/><feComposite in="SourceGraphic" in2="flood" operator="in" result="composite1"/><feGaussianBlur in="composite1" stdDeviation="10" result="blur"/><feOffset result="offset"/><feComposite in="SourceGraphic" in2="offset" result="composite2"/></filter><filter id="h" width="2.154" height="1.971" x="-.577" y="-.485" color-interpolation-filters="sRGB"><feFlood flood-opacity=".4" flood-color="rgb(94,94,0)" result="flood"/><feComposite in="SourceGraphic" in2="flood" operator="in" result="composite1"/><feGaussianBlur in="composite1" stdDeviation="10" result="blur"/><feOffset result="offset"/><feComposite in="SourceGraphic" in2="offset" result="composite2"/></filter><filter id="j" width="2.168" height="1.963" x="-.584" y="-.481" color-interpolation-filters="sRGB"><feFlood flood-opacity=".4" flood-color="rgb(94,94,0)" result="flood"/><feComposite in="SourceGraphic" in2="flood" operator="in" result="composite1"/><feGaussianBlur in="composite1" stdDeviation="10" result="blur"/><feOffset result="offset"/><feComposite in="SourceGraphic" in2="offset" result="composite2"/></filter><filter id="l" width="2.154" height="1.971" x="-.577" y="-.485" color-interpolation-filters="sRGB"><feFlood flood-opacity=".4" flood-color="rgb(94,94,0)" result="flood"/><feComposite in="SourceGraphic" in2="flood" operator="in" result="composite1"/><feGaussianBlur in="composite1" stdDeviation="10" result="blur"/><feOffset result="offset"/><feComposite in="SourceGraphic" in2="offset" result="composite2"/></filter><filter id="n" width="2.15" height="1.974" x="-.575" y="-.487" color-interpolation-filters="sRGB"><feFlood flood-opacity=".4" flood-color="rgb(94,94,0)" result="flood"/><feComposite in="SourceGraphic" in2="flood" operator="in" result="composite1"/><feGaussianBlur in="composite1" stdDeviation="10" result="blur"/><feOffset result="offset"/><feComposite in="SourceGraphic" in2="offset" result="composite2"/></filter><filter id="p" width="2.154" height="1.971" x="-.577" y="-.485" color-interpolation-filters="sRGB"><feFlood flood-opacity=".4" flood-color="rgb(94,94,0)" result="flood"/><feComposite in="SourceGraphic" in2="flood" operator="in" result="composite1"/><feGaussianBlur in="composite1" stdDeviation="10" result="blur"/><feOffset result="offset"/><feComposite in="SourceGraphic" in2="offset" result="composite2"/></filter><filter id="r" width="2.168" height="1.963" x="-.584" y="-.481" color-interpolation-filters="sRGB"><feFlood flood-opacity=".4" flood-color="rgb(94,94,0)" result="flood"/><feComposite in="SourceGraphic" in2="flood" operator="in" result="composite1"/><feGaussianBlur in="composite1" stdDeviation="10" result="blur"/><feOffset result="offset"/><feComposite in="SourceGraphic" in2="offset" result="composite2"/></filter><filter id="t" width="2.154" height="1.971" x="-.577" y="-.485" color-interpolation-filters="sRGB"><feFlood flood-opacity=".4" flood-color="rgb(94,94,0)" result="flood"/><feComposite in="SourceGraphic" in2="flood" operator="in" result="composite1"/><feGaussianBlur in="composite1" stdDeviation="10" result="blur"/><feOffset result="offset"/><feComposite in="SourceGraphic" in2="offset" result="composite2"/></filter><filter id="v" width="2.15" height="1.974" x="-.575" y="-.487" color-interpolation-filters="sRGB"><feFlood flood-opacity=".4" flood-color="rgb(94,94,0)" result="flood"/><feComposite in="SourceGraphic" in2="flood" operator="in" result="composite1"/><feGaussianBlur in="composite1" stdDeviation="10" result="blur"/><feOffset result="offset"/><feComposite in="SourceGraphic" in2="offset" result="composite2"/></filter></defs><g filter="url(#e)" stroke-linecap="square" stroke-linejoin="round"><circle cx="200" cy="200" r="177.732" fill="#d3d02c" fill-opacity=".801" stroke="#d6c43e" stroke-opacity=".86" stroke-width="4.537"/><circle cx="201.01" cy="199.039" r="167.858" fill="url(#f)" stroke="#ddcd5c" stroke-opacity=".271" stroke-width="4.285"/><text x="63.75" y="189.481" fill="#4d4d05" fill-opacity=".244" stroke="#5f6008" stroke-opacity=".175" stroke-width="4" style="line-height:1.25;-inkscape-font-specification:'Emoji One'" font-size="50" font-family="'Emoji One'"><tspan x="63.75" y="189.481" style="-inkscape-font-specification:'Bungee Shade'" font-family="'Bungee Shade'">PROFILE</tspan></text><text x="84.75" y="244.319" fill="#4d4d05" fill-opacity=".244" stroke="#5f6008" stroke-opacity=".175" stroke-width="4" style="line-height:1.25;-inkscape-font-specification:'Emoji One'" font-size="50" font-family="'Emoji One'"><tspan x="84.75" y="244.319" style="-inkscape-font-specification:'Bungee Shade'" font-family="'Bungee Shade'">status</tspan></text></g><path fill="url(#g)" fill-rule="evenodd" stroke="#d5d41b" stroke-opacity=".988" stroke-width="2" d="M38.41 21.99c1.138-4.823 6.68-6.35 10.64-6.36 6.387-.018 10.1 3.803 10.26 7.655l1.068 25.488c-.232.297 15.188 5.427 19.233 10.56 1.317 1.67-.486 4.762-2.233 5.974-1.542 1.07-3.777 2.188-5.592 1.715C57.76 64.038 46.49 57.817 37.16 41.136c-.955-6.463-.15-13.202 1.25-19.146z" stroke-linecap="round" stroke-linejoin="round" filter="url(#h)"/><path fill="url(#i)" fill-rule="evenodd" stroke="#d5d41b" stroke-opacity=".988" stroke-width="2" d="M86.484 46.03c-1.23 4.8-6.8 6.22-10.762 6.153-6.385-.108-10.023-4-10.11-7.855l-.568-25.504c.238-.293-15.08-5.722-19.023-10.934-1.282-1.695.58-4.75 2.35-5.928C49.935.922 52.19-.153 53.997.356c13.962 3.257 25.11 9.697 34.113 26.556.828 6.48-.11 13.203-1.626 19.118z" stroke-linecap="round" stroke-linejoin="round" filter="url(#j)"/><path fill="url(#k)" fill-rule="evenodd" stroke="#d5d41b" stroke-opacity=".988" stroke-width="2" d="M-1.52-25.353c1.135-4.822 6.676-6.35 10.638-6.36 6.386-.018 10.1 3.803 10.26 7.655L20.446 1.43c-.232.297 15.19 5.427 19.234 10.56 1.314 1.67-.49 4.762-2.236 5.974-1.542 1.07-3.776 2.19-5.592 1.715C17.83 16.694 6.557 10.473-2.773-6.207c-.955-6.463-.15-13.203 1.252-19.147z" stroke-linecap="round" stroke-linejoin="round" filter="url(#l)"/><path fill="url(#m)" fill-rule="evenodd" stroke="#d5d41b" stroke-opacity=".988" stroke-width="2" d="M47.603-2.537c-1.11 4.83-6.64 6.39-10.603 6.422-6.386.053-10.12-3.747-10.304-7.597l-1.213-25.482c.23-.298-15.22-5.34-19.293-10.45-1.325-1.662.46-4.764 2.2-5.986 1.536-1.078 3.764-2.21 5.582-1.748 14.04 2.905 25.347 9.06 34.773 25.688.992 6.457.224 13.2-1.142 19.153z" stroke-linecap="round" stroke-linejoin="round" filter="url(#n)"/><path fill="url(#o)" fill-rule="evenodd" stroke="#d5d41b" stroke-opacity=".988" stroke-width="2" d="M363.106 22.235c-1.137-4.823-6.678-6.35-10.64-6.36-6.386-.018-10.1 3.803-10.26 7.655l-1.067 25.488c.23.297-15.19 5.427-19.234 10.56-1.316 1.67.488 4.762 2.234 5.974 1.542 1.07 3.777 2.188 5.593 1.715 14.023-2.984 25.294-9.205 34.625-25.886.954-6.46.148-13.2-1.252-19.145z" stroke-linecap="round" stroke-linejoin="round" filter="url(#p)"/><path fill="url(#q)" fill-rule="evenodd" stroke="#d5d41b" stroke-opacity=".988" stroke-width="2" d="M315.033 46.275c1.23 4.8 6.8 6.22 10.762 6.153 6.385-.108 10.023-4 10.11-7.855l.568-25.504c-.238-.294 15.08-5.723 19.024-10.935 1.282-1.695-.58-4.75-2.35-5.928-1.563-1.04-3.82-2.115-5.626-1.606-13.96 3.258-25.11 9.698-34.112 26.557-.828 6.48.11 13.203 1.625 19.118z" stroke-linecap="round" stroke-linejoin="round" filter="url(#r)"/><path fill="url(#s)" fill-rule="evenodd" stroke="#d5d41b" stroke-opacity=".988" stroke-width="2" d="M403.038-25.108c-1.136-4.822-6.677-6.35-10.64-6.36-6.385-.018-10.098 3.803-10.26 7.655l-1.066 25.488c.232.297-15.188 5.427-19.233 10.56-1.317 1.67.486 4.762 2.233 5.974 1.542 1.068 3.776 2.188 5.592 1.714C383.688 16.94 394.96 10.72 404.29-5.96c.955-6.464.15-13.204-1.252-19.148z" stroke-linecap="round" stroke-linejoin="round" filter="url(#t)"/><path fill="url(#u)" fill-rule="evenodd" stroke="#d5d41b" stroke-opacity=".988" stroke-width="2" d="M353.914-2.292c1.11 4.83 6.64 6.39 10.603 6.422 6.386.053 10.12-3.747 10.304-7.597l1.214-25.482c-.23-.297 15.22-5.338 19.293-10.45 1.326-1.66-.46-4.763-2.2-5.985-1.535-1.078-3.764-2.21-5.582-1.747-14.04 2.904-25.347 9.06-34.773 25.687-.992 6.457-.224 13.2 1.142 19.153z" stroke-linecap="round" stroke-linejoin="round" filter="url(#v)"/></svg>